<?xml version="1.0" encoding="utf-8"?>
<!-- Generator: Adobe Illustrator 15.1.0, SVG Export Plug-In . SVG Version: 6.00 Build 0)  -->
<!DOCTYPE svg PUBLIC "-//W3C//DTD SVG 1.1//EN" "http://www.w3.org/Graphics/SVG/1.1/DTD/svg11.dtd">
<svg version="1.1" id="Layer_1" xmlns="http://www.w3.org/2000/svg" xmlns:xlink="http://www.w3.org/1999/xlink" x="0px" y="0px"
	 width="442.372px" height="99.013px" viewBox="0 0 442.372 99.013" enable-background="new 0 0 442.372 99.013"
	 xml:space="preserve">
<path fill="#FFFFFF" d="M135.393,29.306h4.16l18.227,43.308h-4.526l-4.71-11.499h-22.938l-4.894,11.499h-4.22L135.393,29.306z
	 M137.289,33.71l-10.093,23.733h19.88L137.289,33.71z"/>
<g>
	<defs>
		<rect id="SVGID_1_" width="442.372" height="99.013"/>
	</defs>
	<clipPath id="SVGID_2_">
		<use xlink:href="#SVGID_1_"  overflow="visible"/>
	</clipPath>
	<path clip-path="url(#SVGID_2_)" fill="#FFFFFF" d="M185.324,67.659h-0.122c-2.264,3.915-7.095,5.689-11.317,5.689
		c-8.686,0-14.863-6.239-14.863-14.865c0-8.624,6.177-14.863,14.863-14.863c4.222,0,9.053,1.774,11.317,5.689h0.122V26.37h3.67
		v46.244h-3.67V67.659z M173.885,46.923c-6.912,0-11.193,5.199-11.193,11.56c0,6.362,4.281,11.562,11.193,11.562
		c6.668,0,11.805-5.199,11.805-11.562C185.69,52.122,180.553,46.923,173.885,46.923"/>
	<polygon clip-path="url(#SVGID_2_)" fill="#FFFFFF" points="193.037,44.354 197.197,44.354 206.616,68.638 215.792,44.354 
		219.524,44.354 208.39,72.614 204.598,72.614 	"/>
	<path clip-path="url(#SVGID_2_)" fill="#FFFFFF" d="M247.644,67.292c-2.876,4.282-7.218,6.056-12.235,6.056
		c-8.624,0-14.313-6.178-14.313-14.925c0-8.442,5.874-14.802,14.131-14.802c8.686,0,13.274,6.667,13.274,13.212v2.568h-23.733
		c0,3.059,2.14,10.644,10.704,10.644c3.73,0,7.645-1.958,9.48-5.016L247.644,67.292z M244.83,56.098
		c0-5.016-4.345-9.175-9.787-9.175c-8.015,0-10.276,7.706-10.276,9.175H244.83z"/>
	<path clip-path="url(#SVGID_2_)" fill="#FFFFFF" d="M255.314,65.396c1.527,2.997,4.894,4.648,8.195,4.648
		c3.182,0,6.483-1.958,6.483-5.199c0-7.769-16.759-2.324-16.759-13.09c0-5.505,5.016-8.135,9.664-8.135
		c4.588,0,8.135,1.712,9.971,5.321l-3.304,1.958c-1.406-2.569-3.363-3.976-6.667-3.976c-2.63,0-5.994,1.59-5.994,4.527
		c0,7.646,16.759,1.712,16.759,13.15c0,5.812-4.832,8.748-10.213,8.748c-4.834,0-9.176-1.835-11.378-5.75L255.314,65.396z"/>
	<path clip-path="url(#SVGID_2_)" fill="#FFFFFF" d="M294.267,47.657h-8.075v18.412c0,2.508,1.468,3.976,3.915,3.976
		c1.406,0,2.874-0.428,4.16-0.979l0.304,3.303c-1.344,0.49-3.363,0.979-4.77,0.979c-5.261,0-7.279-3.242-7.279-7.279V47.657h-6.118
		v-3.303h6.118v-8.135h3.67v8.135h8.075V47.657z"/>
	<path clip-path="url(#SVGID_2_)" fill="#FFFFFF" d="M301.245,30.407c1.528,0,2.752,1.223,2.752,2.752s-1.224,2.753-2.752,2.753
		c-1.53,0-2.753-1.224-2.753-2.753S299.715,30.407,301.245,30.407 M299.409,44.354h3.67v28.26h-3.67V44.354z"/>
	<path clip-path="url(#SVGID_2_)" fill="#FFFFFF" d="M339.04,70.779c0,14.068-9.297,16.515-15.047,16.515
		c-5.688,0-11.133-2.201-14.007-5.933l2.874-2.692c2.569,3.609,6.729,5.322,11.133,5.322c11.194,0,11.377-9.787,11.377-12.967
		v-3.915h-0.122c-2.141,3.364-5.873,5.505-10.705,5.505c-8.318,0-15.108-6.545-15.108-14.498c0-7.951,6.79-14.496,15.108-14.496
		c4.832,0,8.564,2.141,10.705,5.505h0.122v-4.771h3.67V70.779z M324.299,46.923c-6.178,0-11.192,5.016-11.192,11.193
		c0,6.179,5.015,11.195,11.192,11.195c6.179,0,11.194-5.017,11.194-11.195C335.493,51.939,330.478,46.923,324.299,46.923"/>
	<path clip-path="url(#SVGID_2_)" fill="#FFFFFF" d="M368.082,60.748c0,5.505,0.123,8.624,0.551,11.866h-3.425
		c-0.244-1.407-0.368-2.997-0.368-4.588h-0.122c-2.08,3.608-5.138,5.321-9.91,5.321c-4.83,0-9.969-2.386-9.969-8.379
		c0-8.626,10.091-9.482,15.659-9.482h4.282v-1.713c0-4.893-3.426-6.85-7.952-6.85c-3.304,0-6.117,1.039-8.625,3.18l-2.14-2.508
		c2.689-2.569,7.095-3.975,10.765-3.975c6.85,0,11.254,3.058,11.254,10.214V60.748z M360.742,58.422
		c-6.116,0-12.233,1.529-12.233,6.362c0,3.485,3.363,5.26,6.421,5.26c7.83,0,9.851-5.016,9.851-9.727v-1.896H360.742z"/>
	<path clip-path="url(#SVGID_2_)" fill="#FFFFFF" d="M389.651,47.657h-8.074v18.412c0,2.508,1.468,3.976,3.914,3.976
		c1.408,0,2.876-0.428,4.16-0.979l0.306,3.303c-1.346,0.49-3.364,0.979-4.771,0.979c-5.261,0-7.278-3.242-7.278-7.279V47.657h-6.117
		v-3.303h6.117v-8.135h3.67v8.135h8.074V47.657z"/>
	<path clip-path="url(#SVGID_2_)" fill="#FFFFFF" d="M406.583,43.62c8.686,0,14.862,6.239,14.862,14.864
		s-6.177,14.864-14.862,14.864c-8.687,0-14.865-6.239-14.865-14.864S397.896,43.62,406.583,43.62 M406.583,70.044
		c6.912,0,11.193-5.2,11.193-11.561c0-6.362-4.281-11.561-11.193-11.561s-11.193,5.199-11.193,11.561
		C395.39,64.844,399.671,70.044,406.583,70.044"/>
	<path clip-path="url(#SVGID_2_)" fill="#FFFFFF" d="M427.631,52.305c0-2.079-0.307-6.483-0.307-7.952h3.67
		c0.061,2.079,0.122,4.404,0.244,4.955c1.836-3.304,4.772-5.689,8.992-5.689c0.734,0,1.407,0.122,2.141,0.306l-0.428,3.609
		c-0.551-0.184-1.04-0.245-1.407-0.245c-6.361,0-9.235,4.404-9.235,9.91v15.414h-3.67V52.305z"/>
	<path clip-path="url(#SVGID_2_)" fill="#FFFFFF" d="M99.013,49.506C99.013,22.165,76.848,0,49.506,0C22.165,0,0,22.165,0,49.506
		s22.165,49.507,49.506,49.507C76.848,99.013,99.013,76.848,99.013,49.506"/>
	<path clip-path="url(#SVGID_2_)" fill="#EAB500" d="M76.483,68.394L63.098,55.009c5.625-9.168,4.492-21.311-3.447-29.251
		c-9.295-9.294-24.363-9.294-33.658,0c-9.294,9.294-9.294,24.363,0,33.657c7.94,7.94,20.083,9.073,29.251,3.448l13.385,13.385
		c2.147,2.146,5.628,2.146,7.776,0l0.078-0.079C78.63,74.023,78.63,70.542,76.483,68.394"/>
	<path clip-path="url(#SVGID_2_)" fill="#F5DA80" d="M52.943,32.466c-5.59-5.59-14.652-5.59-20.242,0
		c-5.59,5.59-5.59,14.652,0,20.242c5.59,5.59,14.652,5.59,20.242,0C58.533,47.118,58.533,38.056,52.943,32.466"/>
</g>
</svg>
