<?xml version="1.0" encoding="utf-8"?>
<!-- Generator: Adobe Illustrator 15.1.0, SVG Export Plug-In . SVG Version: 6.00 Build 0)  -->
<!DOCTYPE svg PUBLIC "-//W3C//DTD SVG 1.1//EN" "http://www.w3.org/Graphics/SVG/1.1/DTD/svg11.dtd">
<svg version="1.1" id="Layer_1" xmlns="http://www.w3.org/2000/svg" xmlns:xlink="http://www.w3.org/1999/xlink" x="0px" y="0px"
	 width="359.041px" height="99.013px" viewBox="0 0 359.041 99.013" enable-background="new 0 0 359.041 99.013"
	 xml:space="preserve">
<path fill="#FFFFFF" d="M135.392,29.306h4.16l18.227,43.308h-4.526l-4.71-11.499h-22.938l-4.894,11.499h-4.22L135.392,29.306z
	 M137.288,33.71l-10.093,23.733h19.88L137.288,33.71z"/>
<g>
	<defs>
		<rect id="SVGID_1_" width="359.042" height="99.013"/>
	</defs>
	<clipPath id="SVGID_2_">
		<use xlink:href="#SVGID_1_"  overflow="visible"/>
	</clipPath>
	<path clip-path="url(#SVGID_2_)" fill="#FFFFFF" d="M161.47,44.354h3.669v4.955h0.122c2.264-3.915,7.096-5.689,11.316-5.689
		c8.686,0,14.865,6.239,14.865,14.864s-6.179,14.864-14.865,14.864c-4.22,0-9.052-1.774-11.316-5.689h-0.122V86.56h-3.669V44.354z
		 M176.577,70.044c6.912,0,11.193-5.2,11.193-11.561c0-6.362-4.281-11.561-11.193-11.561c-6.668,0-11.805,5.199-11.805,11.561
		C164.771,64.844,169.909,70.044,176.577,70.044"/>
	<path clip-path="url(#SVGID_2_)" fill="#FFFFFF" d="M197.429,44.354h3.67v4.955h0.122c2.265-3.915,7.096-5.689,11.317-5.689
		c8.686,0,14.863,6.239,14.863,14.864s-6.178,14.864-14.863,14.864c-4.222,0-9.053-1.774-11.317-5.689h-0.122V86.56h-3.67V44.354z
		 M212.538,70.044c6.912,0,11.193-5.2,11.193-11.561c0-6.362-4.281-11.561-11.193-11.561c-6.668,0-11.805,5.199-11.805,11.561
		C200.733,64.844,205.87,70.044,212.538,70.044"/>
	<path clip-path="url(#SVGID_2_)" fill="#FFFFFF" d="M231.271,48.821l9.521-9.272c2.389-2.317,3.566-3.672,3.566-6.132
		c0-2.639-2.068-4.28-4.602-4.28c-2.532,0-4.313,1.605-4.778,4.03l-3.245-0.285c0.679-4.137,3.852-6.312,7.917-6.312
		c4.173,0,7.702,2.353,7.702,6.847c0,4.029-2.39,6.275-4.921,8.664l-7.774,7.311v0.071h12.874v2.781h-16.261V48.821z"/>
	<path clip-path="url(#SVGID_2_)" fill="#FFFFFF" d="M252.694,65.396c1.527,2.997,4.894,4.649,8.195,4.649
		c3.182,0,6.483-1.958,6.483-5.2c0-7.769-16.759-2.324-16.759-13.09c0-5.505,5.016-8.135,9.664-8.135
		c4.588,0,8.135,1.712,9.971,5.321l-3.304,1.958c-1.406-2.569-3.363-3.976-6.667-3.976c-2.63,0-5.994,1.59-5.994,4.527
		c0,7.646,16.759,1.712,16.759,13.15c0,5.812-4.832,8.748-10.213,8.748c-4.834,0-9.176-1.835-11.378-5.75L252.694,65.396z"/>
	<path clip-path="url(#SVGID_2_)" fill="#FFFFFF" d="M278.856,30.407c1.527,0,2.752,1.224,2.752,2.753
		c0,1.528-1.225,2.752-2.752,2.752c-1.53,0-2.754-1.224-2.754-2.752C276.103,31.631,277.326,30.407,278.856,30.407 M277.021,44.354
		h3.67v28.26h-3.67V44.354z"/>
	<polygon clip-path="url(#SVGID_2_)" fill="#FFFFFF" points="285.64,70.412 302.582,47.657 286.495,47.657 286.495,44.354 
		307.66,44.354 307.66,46.556 290.777,69.311 308.395,69.311 308.395,72.614 285.64,72.614 	"/>
	<path clip-path="url(#SVGID_2_)" fill="#FFFFFF" d="M337.143,67.292c-2.876,4.282-7.218,6.056-12.234,6.056
		c-8.624,0-14.314-6.178-14.314-14.925c0-8.442,5.874-14.802,14.132-14.802c8.686,0,13.273,6.666,13.273,13.212v2.569h-23.733
		c0,3.058,2.141,10.643,10.704,10.643c3.731,0,7.646-1.958,9.481-5.015L337.143,67.292z M334.329,56.098
		c0-5.016-4.345-9.175-9.787-9.175c-8.014,0-10.276,7.706-10.276,9.175H334.329z"/>
	<path clip-path="url(#SVGID_2_)" fill="#FFFFFF" d="M344.3,52.306c0-2.08-0.306-6.484-0.306-7.953h3.67
		c0.061,2.079,0.122,4.404,0.244,4.955c1.836-3.304,4.771-5.689,8.992-5.689c0.733,0,1.407,0.122,2.141,0.306l-0.428,3.609
		c-0.551-0.184-1.04-0.245-1.407-0.245c-6.362,0-9.236,4.404-9.236,9.91v15.414h-3.67V52.306z"/>
	<path clip-path="url(#SVGID_2_)" fill="#FFFFFF" d="M99.013,49.506C99.013,22.165,76.848,0,49.506,0C22.165,0,0,22.165,0,49.506
		s22.165,49.507,49.506,49.507C76.848,99.013,99.013,76.848,99.013,49.506"/>
	<path clip-path="url(#SVGID_2_)" fill="#C0A4CB" d="M24.458,69.858c-4.447,0-8.051-3.604-8.051-8.051V37.206
		c0-4.447,3.604-8.051,8.051-8.051h50.097c4.446,0,8.051,3.604,8.051,8.051v24.601c0,4.446-3.605,8.051-8.051,8.051H24.458z"/>
	<path clip-path="url(#SVGID_2_)" fill="#814997" d="M66.67,73.354c0,3.75-3.04,6.79-6.79,6.79H39.132c-3.75,0-6.79-3.04-6.79-6.79
		V25.659c0-3.75,3.04-6.79,6.79-6.79H59.88c3.75,0,6.79,3.04,6.79,6.79V73.354z"/>
</g>
</svg>
