<?xml version="1.0" encoding="utf-8"?>
<!-- Generator: Adobe Illustrator 15.1.0, SVG Export Plug-In . SVG Version: 6.00 Build 0)  -->
<!DOCTYPE svg PUBLIC "-//W3C//DTD SVG 1.1//EN" "http://www.w3.org/Graphics/SVG/1.1/DTD/svg11.dtd">
<svg version="1.1" id="Layer_1" xmlns="http://www.w3.org/2000/svg" xmlns:xlink="http://www.w3.org/1999/xlink" x="0px" y="0px"
	 width="488.368px" height="144.639px" viewBox="0 0 488.368 144.639" enable-background="new 0 0 488.368 144.639"
	 xml:space="preserve">
<polygon fill="#004899" points="164.012,28.6 171.627,28.6 183.508,71.704 183.66,71.704 196.378,28.6 204.755,28.6 217.474,71.704 
	217.625,71.704 229.507,28.6 237.122,28.6 221.434,82.519 213.742,82.519 200.643,38.5 200.491,38.5 187.468,82.519 179.775,82.519 
	"/>
<g>
	<defs>
		<rect id="SVGID_1_" width="488.367" height="144.639"/>
	</defs>
	<clipPath id="SVGID_2_">
		<use xlink:href="#SVGID_1_"  overflow="visible"/>
	</clipPath>
	<path clip-path="url(#SVGID_2_)" fill="#004899" d="M253.912,45.506c10.738,0,19.191,8.454,19.191,18.963
		c0,10.51-8.453,18.963-19.191,18.963c-10.738,0-19.191-8.453-19.191-18.963C234.721,53.96,243.174,45.506,253.912,45.506
		 M253.912,77.036c7.312,0,11.88-5.255,11.88-12.566s-4.568-12.565-11.88-12.565c-7.311,0-11.88,5.254-11.88,12.565
		S246.602,77.036,253.912,77.036"/>
	<path clip-path="url(#SVGID_2_)" fill="#004899" d="M278.232,46.42h6.854v5.56h0.152c1.752-3.809,6.321-6.474,10.815-6.474
		c1.065,0,2.132,0.152,3.046,0.457l-0.306,7.387c-1.142-0.305-2.284-0.533-3.351-0.533c-6.701,0-10.357,3.656-10.357,11.576v18.125
		h-6.854V46.42z"/>
	<rect x="302.635" y="24.944" clip-path="url(#SVGID_2_)" fill="#004899" width="6.854" height="57.574"/>
	<path clip-path="url(#SVGID_2_)" fill="#004899" d="M352.365,82.518h-6.854V77.34h-0.152c-2.666,3.884-7.691,6.092-12.565,6.092
		c-11.195,0-18.354-8.301-18.354-18.963c0-10.814,7.235-18.963,18.354-18.963c5.178,0,10.129,2.361,12.565,6.093h0.152V24.944h6.854
		V82.518z M345.512,64.469c0-7.311-4.569-12.565-11.88-12.565c-7.312,0-11.881,5.254-11.881,12.565s4.569,12.566,11.881,12.566
		C340.942,77.036,345.512,71.78,345.512,64.469"/>
	<path clip-path="url(#SVGID_2_)" fill="#004899" d="M385.199,56.016c-2.513-2.666-5.179-4.036-8.985-4.036
		c-7.464,0-11.271,6.016-11.271,12.794c0,6.778,4.569,12.261,11.652,12.261c3.807,0,6.473-1.37,8.757-4.035l4.874,4.874
		c-3.579,3.96-8.453,5.56-13.708,5.56c-11.119,0-18.886-7.692-18.886-18.812c0-11.118,7.614-19.039,18.886-19.039
		c5.255,0,10.282,1.828,13.861,5.712L385.199,56.016z"/>
	<path clip-path="url(#SVGID_2_)" fill="#004899" d="M409.52,45.506c10.738,0,19.19,8.454,19.19,18.963
		c0,10.51-8.452,18.963-19.19,18.963s-19.191-8.453-19.191-18.963C390.328,53.96,398.781,45.506,409.52,45.506 M409.52,77.036
		c7.311,0,11.88-5.255,11.88-12.566s-4.569-12.565-11.88-12.565c-7.312,0-11.88,5.254-11.88,12.565S402.208,77.036,409.52,77.036"/>
	<path clip-path="url(#SVGID_2_)" fill="#004899" d="M433.839,46.42h6.397v5.635h0.152c0.686-2.132,5.103-6.549,11.575-6.549
		c5.331,0,8.987,2.285,11.271,6.702c2.36-4.417,7.083-6.702,11.424-6.702c11.119,0,13.708,7.92,13.708,15.993v21.019h-6.854V62.414
		c0-5.484-1.143-10.51-7.769-10.51s-9.215,4.494-9.215,10.891v19.724h-6.854V63.631c0-6.854-0.989-11.728-7.615-11.728
		c-4.95,0-9.367,3.732-9.367,11.881v18.734h-6.854V46.42z"/>
	<path clip-path="url(#SVGID_2_)" fill="#004899" d="M144.639,72.32C144.639,32.378,112.26,0,72.32,0C32.379,0,0,32.378,0,72.32
		c0,39.94,32.379,72.318,72.32,72.318C112.26,144.638,144.639,112.26,144.639,72.32"/>
	<path clip-path="url(#SVGID_2_)" fill="#FFFFFF" d="M19.519,97.431c-0.448,1.669-0.206,3.488,0.661,4.991
		c0.868,1.503,2.323,2.621,3.991,3.067c1.671,0.448,3.49,0.207,4.992-0.66c1.502-0.868,2.62-2.322,3.068-3.993
		c0.447-1.669,0.206-3.488-0.661-4.99c-0.867-1.502-2.323-2.621-3.992-3.067c-1.669-0.447-3.489-0.206-4.991,0.661
		S19.966,95.762,19.519,97.431"/>
	<path clip-path="url(#SVGID_2_)" fill="#FFFFFF" d="M125.12,47.208c0.448-1.669,0.206-3.488-0.661-4.991
		c-0.868-1.503-2.323-2.621-3.991-3.067c-1.671-0.448-3.49-0.207-4.992,0.66c-1.502,0.868-2.62,2.322-3.068,3.993
		c-0.447,1.669-0.206,3.488,0.661,4.99c0.867,1.502,2.323,2.621,3.992,3.068c1.669,0.447,3.489,0.206,4.991-0.661
		C123.554,50.332,124.673,48.877,125.12,47.208"/>
	<path clip-path="url(#SVGID_2_)" fill="#FFFFFF" d="M24.172,39.149c-1.669,0.447-3.124,1.565-3.992,3.068
		c-0.867,1.503-1.108,3.322-0.66,4.99c0.447,1.67,1.565,3.125,3.067,3.992c1.503,0.868,3.321,1.109,4.992,0.661
		c1.669-0.447,3.124-1.565,3.991-3.067c0.867-1.502,1.108-3.322,0.661-4.991c-0.447-1.669-1.566-3.124-3.068-3.992
		C27.661,38.943,25.841,38.702,24.172,39.149"/>
	<path clip-path="url(#SVGID_2_)" fill="#FFFFFF" d="M120.467,105.491c1.669-0.447,3.124-1.565,3.992-3.068
		c0.867-1.503,1.108-3.322,0.66-4.99c-0.447-1.67-1.565-3.125-3.067-3.992c-1.503-0.867-3.321-1.108-4.992-0.66
		c-1.669,0.446-3.124,1.564-3.991,3.066s-1.108,3.322-0.661,4.991c0.447,1.669,1.566,3.124,3.068,3.992
		C116.979,105.697,118.798,105.937,120.467,105.491"/>
	<path clip-path="url(#SVGID_2_)" fill="#FFFFFF" d="M76.972,14.037c-1.221-1.222-2.917-1.923-4.653-1.923
		c-1.735,0-3.431,0.701-4.652,1.923c-1.222,1.223-1.923,2.918-1.923,4.653c0,1.734,0.701,3.43,1.923,4.653
		c1.222,1.222,2.918,1.923,4.652,1.923c1.735,0,3.431-0.701,4.653-1.923c1.222-1.222,1.923-2.919,1.923-4.653
		C78.895,16.955,78.194,15.259,76.972,14.037"/>
	<path clip-path="url(#SVGID_2_)" fill="#FFFFFF" d="M67.667,130.602c1.221,1.223,2.917,1.923,4.653,1.923
		c1.735,0,3.431-0.7,4.652-1.923c1.222-1.223,1.923-2.918,1.923-4.652c0-1.735-0.701-3.431-1.923-4.653
		c-1.222-1.222-2.918-1.923-4.652-1.923c-1.735,0-3.431,0.701-4.653,1.923c-1.222,1.222-1.923,2.918-1.923,4.653
		C65.744,127.684,66.445,129.38,67.667,130.602"/>
	<path clip-path="url(#SVGID_2_)" fill="#A6BFDB" d="M20.013,82.604c-0.57,2.123,0.691,4.309,2.815,4.875l8.243,2.209
		c1.942,0.538,3.682,1.81,4.77,3.693c1.087,1.883,1.318,4.025,0.812,5.977l-2.208,8.243c-0.57,2.122,0.691,4.307,2.815,4.875
		c2.123,0.57,4.307-0.69,4.875-2.814l3.399-12.683l8.985-5.188c3.808-2.199,5.112-7.068,2.914-10.876
		c-2.199-3.81-7.069-5.114-10.877-2.915l-8.985,5.187L24.889,79.79C22.765,79.219,20.582,80.48,20.013,82.604"/>
	<path clip-path="url(#SVGID_2_)" fill="#A6BFDB" d="M124.626,62.035c0.57-2.123-0.691-4.308-2.815-4.875l-8.243-2.209
		c-1.942-0.538-3.682-1.809-4.77-3.693c-1.087-1.883-1.318-4.026-0.812-5.977l2.208-8.243c0.57-2.122-0.691-4.307-2.815-4.875
		c-2.123-0.57-4.307,0.691-4.875,2.815L99.105,47.66l-8.985,5.188c-3.808,2.199-5.112,7.068-2.914,10.876
		c2.199,3.809,7.069,5.114,10.877,2.915l8.985-5.187l12.682,3.398C121.874,65.42,124.057,64.159,124.626,62.035"/>
	<path clip-path="url(#SVGID_2_)" fill="#A6BFDB" d="M37.26,32.164c-2.123,0.568-3.385,2.753-2.815,4.875l2.209,8.243
		c0.505,1.951,0.274,4.094-0.813,5.977c-1.087,1.884-2.828,3.155-4.77,3.693l-8.243,2.209c-2.123,0.567-3.385,2.752-2.815,4.875
		c0.569,2.124,2.752,3.385,4.876,2.815l12.683-3.398l8.985,5.187c3.808,2.199,8.677,0.894,10.876-2.914
		c2.199-3.809,0.894-8.678-2.914-10.877l-8.985-5.188l-3.398-12.682C41.567,32.854,39.384,31.593,37.26,32.164"/>
	<path clip-path="url(#SVGID_2_)" fill="#A6BFDB" d="M107.379,112.476c2.123-0.568,3.385-2.753,2.815-4.875l-2.209-8.243
		c-0.505-1.951-0.274-4.094,0.813-5.977c1.087-1.885,2.828-3.155,4.77-3.693l8.243-2.209c2.123-0.567,3.385-2.752,2.815-4.875
		c-0.569-2.124-2.752-3.385-4.876-2.814l-12.683,3.397L98.082,78c-3.808-2.199-8.677-0.895-10.876,2.913
		c-2.199,3.81-0.894,8.679,2.914,10.878l8.985,5.188l3.398,12.682C103.072,111.785,105.255,113.046,107.379,112.476"/>
	<path clip-path="url(#SVGID_2_)" fill="#A6BFDB" d="M89.566,21.879c-1.553-1.555-4.076-1.555-5.63,0l-6.034,6.034
		c-1.437,1.413-3.408,2.285-5.583,2.285c-2.174,0-4.145-0.872-5.582-2.285l-6.035-6.034c-1.553-1.555-4.076-1.555-5.629,0
		c-1.555,1.554-1.555,4.076,0,5.63l9.284,9.284v10.375c0,4.398,3.565,7.962,7.962,7.962c4.398,0,7.963-3.564,7.963-7.962V36.793
		l9.284-9.284C91.121,25.955,91.121,23.433,89.566,21.879"/>
	<path clip-path="url(#SVGID_2_)" fill="#A6BFDB" d="M55.073,122.76c1.553,1.556,4.076,1.556,5.63,0l6.034-6.034
		c1.437-1.413,3.408-2.284,5.583-2.284c2.174,0,4.145,0.871,5.582,2.284l6.035,6.034c1.553,1.556,4.076,1.556,5.629,0
		c1.555-1.554,1.555-4.076,0-5.63l-9.284-9.284V97.471c0-4.397-3.565-7.962-7.962-7.962c-4.398,0-7.963,3.564-7.963,7.962v10.375
		l-9.284,9.284C53.518,118.684,53.518,121.207,55.073,122.76"/>
	<rect x="173.098" y="95.045" clip-path="url(#SVGID_2_)" fill="#5988BD" width="3.299" height="24.329"/>
	<polygon clip-path="url(#SVGID_2_)" fill="#5988BD" points="192.467,95.044 196.796,95.044 210.198,115.044 210.267,115.044 
		210.267,95.044 213.565,95.044 213.565,119.374 209.374,119.374 195.834,99.375 195.766,99.375 195.766,119.374 192.467,119.374 	
		"/>
	<polygon clip-path="url(#SVGID_2_)" fill="#5988BD" points="234.808,98.137 226.973,98.137 226.973,95.044 245.941,95.044 
		245.941,98.137 238.107,98.137 238.107,119.374 234.808,119.374 	"/>
	<polygon clip-path="url(#SVGID_2_)" fill="#5988BD" points="259.327,95.044 275.031,95.044 275.031,98.138 262.627,98.138 
		262.627,105.388 274.173,105.388 274.173,108.481 262.627,108.481 262.627,116.281 275.649,116.281 275.649,119.374 
		259.327,119.374 	"/>
	<path clip-path="url(#SVGID_2_)" fill="#5988BD" d="M289.988,95.044h8.557c6.22,0,7.801,3.746,7.801,6.805
		c0,3.093-2.303,6.014-5.979,6.426l6.907,11.099h-4.124l-6.185-10.721h-3.678v10.721h-3.299V95.044z M293.287,105.766h4.33
		c2.611,0,5.224-0.618,5.224-3.917s-2.612-3.918-5.224-3.918h-4.33V105.766z"/>
	<path clip-path="url(#SVGID_2_)" fill="#5988BD" d="M330.01,95.045h2.989l10.412,24.329h-3.848l-2.44-6.015h-11.58l-2.405,6.015
		h-3.85L330.01,95.045z M335.92,110.474l-4.535-11.168h-0.068l-4.605,11.168H335.92z"/>
	<path clip-path="url(#SVGID_2_)" fill="#5988BD" d="M372.437,100.302c-1.375-1.786-3.643-2.782-5.876-2.782
		c-5.464,0-9.071,4.363-9.071,9.896c0,5.12,3.401,9.484,9.071,9.484c2.783,0,4.914-1.237,6.357-3.265l2.784,2.097
		c-0.723,0.996-3.644,4.261-9.21,4.261c-7.731,0-12.508-6.461-12.508-12.577c0-7.56,5.188-12.989,12.68-12.989
		c3.195,0,6.563,1.203,8.521,3.78L372.437,100.302z"/>
	<polygon clip-path="url(#SVGID_2_)" fill="#5988BD" points="395.583,98.137 387.748,98.137 387.748,95.044 406.717,95.044 
		406.717,98.137 398.882,98.137 398.882,119.374 395.583,119.374 	"/>
	<rect x="420.103" y="95.045" clip-path="url(#SVGID_2_)" fill="#5988BD" width="3.3" height="24.329"/>
	<polygon clip-path="url(#SVGID_2_)" fill="#5988BD" points="436.454,95.044 440.269,95.044 447.415,114.837 447.484,114.837 
		454.907,95.044 458.516,95.044 448.929,119.374 445.835,119.374 	"/>
	<polygon clip-path="url(#SVGID_2_)" fill="#5988BD" points="471.623,95.044 487.327,95.044 487.327,98.138 474.923,98.138 
		474.923,105.388 486.469,105.388 486.469,108.481 474.923,108.481 474.923,116.281 487.945,116.281 487.945,119.374 
		471.623,119.374 	"/>
</g>
</svg>
