<?xml version="1.0" encoding="utf-8"?>
<!-- Generator: Adobe Illustrator 15.1.0, SVG Export Plug-In . SVG Version: 6.00 Build 0)  -->
<!DOCTYPE svg PUBLIC "-//W3C//DTD SVG 1.1//EN" "http://www.w3.org/Graphics/SVG/1.1/DTD/svg11.dtd">
<svg version="1.1" id="Layer_1" xmlns="http://www.w3.org/2000/svg" xmlns:xlink="http://www.w3.org/1999/xlink" x="0px" y="0px"
	 width="366.725px" height="99.013px" viewBox="0 0 366.725 99.013" enable-background="new 0 0 366.725 99.013"
	 xml:space="preserve">
<g>
	<defs>
		<rect id="SVGID_1_" width="366.725" height="99.013"/>
	</defs>
	<clipPath id="SVGID_2_">
		<use xlink:href="#SVGID_1_"  overflow="visible"/>
	</clipPath>
	<path clip-path="url(#SVGID_2_)" fill="#FFFFFF" d="M99.013,49.506C99.013,22.165,76.848,0,49.506,0C22.165,0,0,22.165,0,49.506
		s22.165,49.507,49.506,49.507C76.848,99.013,99.013,76.848,99.013,49.506"/>
	<polygon clip-path="url(#SVGID_2_)" fill="#FFFFFF" points="129.394,8.208 134.48,8.208 147.734,38.722 160.987,8.208 
		165.817,8.208 165.817,44.579 162.426,44.579 162.426,12.522 162.323,12.522 148.453,44.579 146.963,44.579 132.887,12.522 
		132.785,12.522 132.785,44.579 129.394,44.579 	"/>
	<path clip-path="url(#SVGID_2_)" fill="#FFFFFF" d="M184.274,20.229c7.295,0,12.483,5.24,12.483,12.483
		c0,7.244-5.188,12.484-12.483,12.484s-12.484-5.24-12.484-12.484C171.791,25.468,176.979,20.229,184.274,20.229 M184.274,42.421
		c5.806,0,9.4-4.367,9.4-9.71c0-5.342-3.595-9.709-9.4-9.709s-9.401,4.367-9.401,9.709
		C174.874,38.054,178.469,42.421,184.274,42.421"/>
	<path clip-path="url(#SVGID_2_)" fill="#FFFFFF" d="M202.139,27.524c0-1.747-0.257-5.445-0.257-6.678h3.083
		c0.051,1.746,0.103,3.698,0.205,4.16c1.542-2.774,4.007-4.777,7.552-4.777c0.616,0,1.182,0.102,1.798,0.256l-0.359,3.031
		c-0.462-0.153-0.873-0.205-1.182-0.205c-5.343,0-7.758,3.699-7.758,8.323v12.945h-3.082V27.524z"/>
	<path clip-path="url(#SVGID_2_)" fill="#FFFFFF" d="M238.204,40.11c-2.414,3.596-6.062,5.085-10.275,5.085
		c-7.242,0-12.021-5.188-12.021-12.534c0-7.09,4.934-12.432,11.868-12.432c7.294,0,11.147,5.6,11.147,11.096v2.158H218.99
		c0,2.569,1.8,8.939,8.99,8.939c3.134,0,6.422-1.645,7.963-4.213L238.204,40.11z M235.841,30.709c0-4.212-3.647-7.706-8.219-7.706
		c-6.73,0-8.632,6.473-8.632,7.706H235.841z"/>
	<path clip-path="url(#SVGID_2_)" fill="#FFFFFF" d="M269.751,23.619h-6.78v15.464c0,2.105,1.232,3.338,3.288,3.338
		c1.181,0,2.414-0.359,3.492-0.821l0.258,2.773c-1.132,0.412-2.826,0.822-4.008,0.822c-4.418,0-6.112-2.723-6.112-6.112V23.619
		h-5.139v-2.774h5.139v-6.833h3.082v6.833h6.78V23.619z"/>
	<path clip-path="url(#SVGID_2_)" fill="#FFFFFF" d="M274.021,5.741h3.082v19.265h0.103c1.233-2.62,4.265-4.778,8.117-4.778
		c7.398,0,9.042,5.035,9.042,10.223v14.128h-3.082V30.606c0-3.853-1.08-7.603-5.96-7.603c-4.571,0-8.22,3.185-8.22,9.709v11.867
		h-3.082V5.741z"/>
	<path clip-path="url(#SVGID_2_)" fill="#FFFFFF" d="M319.145,34.613c0,4.624,0.103,7.244,0.463,9.966h-2.877
		c-0.206-1.181-0.308-2.517-0.308-3.853h-0.104c-1.747,3.032-4.314,4.469-8.322,4.469c-4.059,0-8.374-2.003-8.374-7.038
		c0-7.243,8.477-7.962,13.151-7.962h3.596v-1.439c0-4.109-2.877-5.753-6.678-5.753c-2.773,0-5.138,0.873-7.243,2.671l-1.799-2.106
		c2.261-2.157,5.959-3.339,9.042-3.339c5.753,0,9.452,2.569,9.452,8.579V34.613z M312.98,32.661c-5.138,0-10.275,1.284-10.275,5.343
		c0,2.928,2.826,4.418,5.395,4.418c6.575,0,8.271-4.213,8.271-8.169v-1.592H312.98z"/>
	<path clip-path="url(#SVGID_2_)" fill="#FFFFFF" d="M325.893,27.524c0-1.747-0.257-5.445-0.257-6.678h3.083
		c0.051,1.746,0.102,3.698,0.205,4.16h0.154c1.232-2.62,4.264-4.777,8.116-4.777c7.398,0,9.042,5.035,9.042,10.223v14.127h-3.082
		V30.606c0-3.853-1.079-7.603-5.96-7.603c-4.571,0-8.22,3.185-8.22,9.709v11.867h-3.082V27.524z"/>
	<path clip-path="url(#SVGID_2_)" fill="#FFFFFF" d="M128.88,69.469c0-1.747-0.257-5.445-0.257-6.679h3.083
		c0.051,1.746,0.102,3.698,0.205,4.16h0.154c1.233-2.62,4.264-4.776,8.117-4.776c3.134,0,6.011,1.541,7.141,5.137
		c1.49-3.545,4.777-5.137,8.065-5.137c7.398,0,9.042,5.034,9.042,10.223v14.127h-3.082V72.551c0-3.854-1.079-7.604-5.96-7.604
		c-5.702,0-7.191,4.829-7.191,8.219v13.357h-3.084V72.243c0-4.366-1.592-7.295-4.931-7.295c-4.572,0-8.22,3.186-8.22,9.709v11.867
		h-3.082V69.469z"/>
	<path clip-path="url(#SVGID_2_)" fill="#FFFFFF" d="M177.215,93.871c-1.181,3.031-3.133,4.982-6.524,4.982
		c-1.027,0-2.055-0.204-3.031-0.462l0.308-2.878c0.873,0.258,1.85,0.566,2.774,0.566c2.261,0,3.237-2.106,3.956-3.956l2.158-5.497
		l-9.658-23.836h3.441l7.86,19.983l7.655-19.983h3.287L177.215,93.871z"/>
	<polygon clip-path="url(#SVGID_2_)" fill="#FFFFFF" points="203.316,62.791 206.707,62.791 212.46,82.671 212.563,82.671 
		219.19,62.791 222.118,62.791 229.156,82.671 229.259,82.671 234.858,62.791 237.941,62.791 230.954,86.524 227.77,86.524 
		220.68,67.105 220.577,67.105 213.95,86.524 210.765,86.524 	"/>
	<path clip-path="url(#SVGID_2_)" fill="#FFFFFF" d="M262.202,82.055c-2.414,3.596-6.061,5.085-10.274,5.085
		c-7.242,0-12.021-5.188-12.021-12.534c0-7.09,4.934-12.432,11.868-12.432c7.294,0,11.146,5.6,11.146,11.096v2.158h-19.932
		c0,2.568,1.799,8.938,8.99,8.938c3.134,0,6.422-1.645,7.963-4.213L262.202,82.055z M259.84,72.654c0-4.212-3.647-7.706-8.22-7.706
		c-6.729,0-8.631,6.473-8.631,7.706H259.84z"/>
	<path clip-path="url(#SVGID_2_)" fill="#FFFFFF" d="M268.134,47.687h3.083v19.264h0.102c1.901-3.287,5.961-4.777,9.505-4.777
		c7.295,0,12.482,5.24,12.482,12.483c0,7.244-5.188,12.483-12.482,12.483c-3.544,0-7.604-1.489-9.505-4.777h-0.102v4.162h-3.083
		V47.687z M280.823,84.367c5.805,0,9.4-4.367,9.4-9.71c0-5.342-3.596-9.708-9.4-9.708c-5.6,0-9.914,4.366-9.914,9.708
		C270.909,80,275.224,84.367,280.823,84.367"/>
	<path clip-path="url(#SVGID_2_)" fill="#FFFFFF" d="M298.92,80.462c1.284,2.518,4.109,3.904,6.883,3.904
		c2.672,0,5.446-1.645,5.446-4.367c0-6.524-14.076-1.952-14.076-10.994c0-4.623,4.212-6.832,8.117-6.832
		c3.853,0,6.832,1.439,8.374,4.471l-2.775,1.643c-1.181-2.157-2.825-3.339-5.599-3.339c-2.209,0-5.035,1.335-5.035,3.802
		c0,6.421,14.077,1.438,14.077,11.045c0,4.88-4.06,7.346-8.58,7.346c-4.059,0-7.706-1.541-9.556-4.828L298.92,80.462z"/>
	<path clip-path="url(#SVGID_2_)" fill="#FFFFFF" d="M321.083,51.078c1.285,0,2.313,1.026,2.313,2.312
		c0,1.284-1.028,2.311-2.313,2.311c-1.284,0-2.311-1.026-2.311-2.311C318.772,52.104,319.799,51.078,321.083,51.078 M319.543,62.791
		h3.082v23.733h-3.082V62.791z"/>
	<path clip-path="url(#SVGID_2_)" fill="#FFFFFF" d="M341.66,65.564h-6.781v15.464c0,2.105,1.232,3.338,3.288,3.338
		c1.181,0,2.414-0.358,3.493-0.82l0.257,2.772c-1.131,0.412-2.826,0.822-4.007,0.822c-4.418,0-6.113-2.723-6.113-6.112V65.564
		h-5.138v-2.773h5.138v-6.833h3.082v6.833h6.781V65.564z"/>
	<path clip-path="url(#SVGID_2_)" fill="#FFFFFF" d="M366.006,82.055c-2.414,3.596-6.061,5.085-10.273,5.085
		c-7.243,0-12.022-5.188-12.022-12.534c0-7.09,4.933-12.432,11.868-12.432c7.294,0,11.146,5.6,11.146,11.096v2.158h-19.932
		c0,2.568,1.799,8.938,8.99,8.938c3.134,0,6.422-1.645,7.963-4.213L366.006,82.055z M363.643,72.654
		c0-4.212-3.646-7.706-8.219-7.706c-6.729,0-8.631,6.473-8.631,7.706H363.643z"/>
	<path clip-path="url(#SVGID_2_)" fill="#F39991" d="M73.534,31.895l-3.254,1.348c-1.329-1.699-2.846-3.208-4.51-4.509l1.348-3.255
		c1.495-3.61-0.219-7.749-3.83-9.245c-3.61-1.495-7.749,0.219-9.245,3.829l-1.348,3.256c-2.096-0.258-4.236-0.264-6.378-0.002
		l-1.347-3.253c-1.496-3.611-5.635-5.325-9.245-3.83c-3.611,1.496-5.325,5.635-3.83,9.245l1.348,3.254
		c-1.7,1.329-3.208,2.846-4.509,4.51l-3.255-1.348c-3.61-1.495-7.75,0.219-9.245,3.83c-1.495,3.61,0.219,7.749,3.829,9.245
		l3.255,1.348c-0.257,2.096-0.263,4.236-0.001,6.378l-3.254,1.349c-3.61,1.494-5.324,5.634-3.829,9.244
		c1.496,3.61,5.635,5.324,9.245,3.829l3.254-1.348c1.329,1.7,2.846,3.209,4.51,4.509l-1.348,3.255
		c-1.495,3.61,0.219,7.749,3.83,9.245c1.805,0.748,3.742,0.693,5.415,0c1.673-0.692,3.082-2.023,3.83-3.829l1.348-3.255
		c2.096,0.257,4.236,0.263,6.378,0.001l1.347,3.254c1.496,3.61,5.635,5.325,9.245,3.829c3.611-1.495,5.325-5.635,3.83-9.245
		l-1.348-3.253c1.7-1.33,3.208-2.847,4.509-4.511l3.255,1.348c1.805,0.748,3.743,0.693,5.416,0c1.672-0.692,3.081-2.023,3.829-3.829
		c1.495-3.61-0.219-7.75-3.829-9.245l-3.255-1.349c0.257-2.096,0.263-4.236,0.001-6.378l3.254-1.347
		c3.61-1.496,5.324-5.635,3.829-9.245C81.284,32.114,77.144,30.4,73.534,31.895 M55.49,63.952
		c-7.978,3.306-17.124-0.483-20.429-8.462c-3.304-7.978,0.484-17.124,8.462-20.429c7.978-3.304,17.124,0.484,20.429,8.462
		C67.256,51.501,63.468,60.647,55.49,63.952"/>
	<path clip-path="url(#SVGID_2_)" fill="#E63323" d="M75.361,43.185h-3.146c-0.516-1.857-1.253-3.621-2.182-5.264l2.226-2.226
		c2.469-2.468,2.469-6.471,0-8.94c-2.469-2.469-6.472-2.469-8.941,0l-2.226,2.225c-1.642-0.929-3.407-1.665-5.264-2.181v-3.147
		c0-3.491-2.83-6.322-6.322-6.322c-3.492,0-6.322,2.831-6.322,6.322v3.147c-1.857,0.516-3.622,1.252-5.264,2.181l-2.226-2.225
		c-2.469-2.469-6.472-2.469-8.941,0c-2.469,2.469-2.469,6.472,0,8.94l2.226,2.226c-0.929,1.643-1.666,3.407-2.182,5.264h-3.146
		c-3.492,0-6.322,2.831-6.322,6.322c0,3.492,2.83,6.322,6.322,6.322h3.146c0.516,1.856,1.253,3.622,2.182,5.264l-2.226,2.227
		c-2.469,2.469-2.469,6.472,0,8.94c1.235,1.234,2.853,1.852,4.471,1.852c1.618,0,3.236-0.617,4.47-1.852l2.226-2.226
		c1.642,0.929,3.407,1.666,5.264,2.182v3.146c0,3.491,2.83,6.321,6.322,6.321c3.492,0,6.322-2.83,6.322-6.321v-3.146
		c1.857-0.516,3.622-1.253,5.264-2.182l2.226,2.226c1.234,1.234,2.852,1.852,4.47,1.852c1.618,0,3.236-0.617,4.471-1.852
		c2.469-2.469,2.469-6.472,0-8.94l-2.226-2.227c0.929-1.642,1.666-3.407,2.182-5.264h3.146c3.492,0,6.322-2.83,6.322-6.322
		C81.684,46.016,78.854,43.185,75.361,43.185 M49.506,63.476c-7.715,0-13.97-6.255-13.97-13.97s6.255-13.97,13.97-13.97
		c7.715,0,13.97,6.255,13.97,13.97S57.222,63.476,49.506,63.476"/>
</g>
</svg>
