<?xml version="1.0" encoding="utf-8"?>
<!-- Generator: Adobe Illustrator 15.1.0, SVG Export Plug-In . SVG Version: 6.00 Build 0)  -->
<!DOCTYPE svg PUBLIC "-//W3C//DTD SVG 1.1//EN" "http://www.w3.org/Graphics/SVG/1.1/DTD/svg11.dtd">
<svg version="1.1" id="Layer_1" xmlns="http://www.w3.org/2000/svg" xmlns:xlink="http://www.w3.org/1999/xlink" x="0px" y="0px"
	 width="160px" height="160px" viewBox="0 0 160 160" enable-background="new 0 0 160 160" xml:space="preserve">
<circle fill="#004798" cx="80" cy="80" r="79"/>
<path fill="#FFFFFF" d="M89.664,91.793c-1.926-0.307-1.969-5.596-1.969-5.596s5.652-5.599,6.885-13.124
	c3.313,0,5.361-7.998,2.047-10.814C96.767,59.298,100.889,39,80.022,39c-20.866,0-16.745,20.298-16.608,23.26
	c-3.313,2.816-1.267,10.814,2.046,10.814c1.23,7.525,6.886,13.124,6.886,13.124s-0.045,5.289-1.969,5.596
	c-6.198,0.987-29.338,11.194-29.338,22.386H119c0-11.191-23.143-21.399-29.339-22.386H89.664z"/>
</svg>
