<?xml version="1.0" encoding="utf-8"?>
<!-- Generator: Adobe Illustrator 15.1.0, SVG Export Plug-In . SVG Version: 6.00 Build 0)  -->
<!DOCTYPE svg PUBLIC "-//W3C//DTD SVG 1.1//EN" "http://www.w3.org/Graphics/SVG/1.1/DTD/svg11.dtd">
<svg version="1.1" id="Layer_1" xmlns="http://www.w3.org/2000/svg" xmlns:xlink="http://www.w3.org/1999/xlink" x="0px" y="0px"
	 width="342.032px" height="99.013px" viewBox="0 0 342.032 99.013" enable-background="new 0 0 342.032 99.013"
	 xml:space="preserve">
<polygon fill="#FFFFFF" points="116.491,29.306 120.65,29.306 131.416,67.659 131.538,67.659 142.488,29.306 147.625,29.306 
	158.575,67.659 158.697,67.659 169.462,29.306 173.622,29.306 161.021,72.614 156.066,72.614 145.118,34.078 144.996,34.078 
	134.045,72.614 129.091,72.614 "/>
<g>
	<defs>
		<rect id="SVGID_1_" width="342.032" height="99.013"/>
	</defs>
	<clipPath id="SVGID_2_">
		<use xlink:href="#SVGID_1_"  overflow="visible"/>
	</clipPath>
	<path clip-path="url(#SVGID_2_)" fill="#FFFFFF" d="M199.435,64.663c0,2.079,0.306,6.483,0.306,7.951h-3.671
		c-0.061-2.079-0.122-4.403-0.244-4.954h-0.184c-1.468,3.119-5.077,5.688-9.664,5.688c-8.81,0-10.767-5.995-10.767-12.173V44.354
		h3.671v16.637c0,4.589,1.284,9.055,7.096,9.055c5.442,0,9.787-3.793,9.787-11.563V44.354h3.67V64.663z"/>
	<polygon clip-path="url(#SVGID_2_)" fill="#FFFFFF" points="204.476,70.412 221.418,47.657 205.331,47.657 205.331,44.354 
		226.496,44.354 226.496,46.556 209.613,69.311 227.23,69.311 227.23,72.614 204.476,72.614 	"/>
	<path clip-path="url(#SVGID_2_)" fill="#FFFFFF" d="M244.161,43.62c8.687,0,14.864,6.239,14.864,14.864
		s-6.178,14.864-14.864,14.864c-8.686,0-14.863-6.239-14.863-14.864S235.476,43.62,244.161,43.62 M244.161,70.044
		c6.912,0,11.194-5.199,11.194-11.561c0-6.362-4.282-11.561-11.194-11.561c-6.911,0-11.192,5.199-11.192,11.561
		C232.969,64.845,237.25,70.044,244.161,70.044"/>
	<path clip-path="url(#SVGID_2_)" fill="#FFFFFF" d="M278.654,43.62c8.686,0,14.864,6.239,14.864,14.864
		s-6.179,14.864-14.864,14.864c-8.687,0-14.864-6.239-14.864-14.864S269.968,43.62,278.654,43.62 M278.654,70.044
		c6.912,0,11.192-5.199,11.192-11.561c0-6.362-4.28-11.561-11.192-11.561s-11.193,5.199-11.193,11.561
		C267.461,64.845,271.742,70.044,278.654,70.044"/>
	<path clip-path="url(#SVGID_2_)" fill="#FFFFFF" d="M299.703,52.306c0-2.08-0.307-6.484-0.307-7.952h3.67
		c0.062,2.079,0.123,4.404,0.245,4.955h0.184c1.469-3.12,5.077-5.689,9.665-5.689c3.73,0,7.156,1.835,8.502,6.117
		c1.773-4.221,5.688-6.117,9.603-6.117c8.809,0,10.767,5.994,10.767,12.172v16.821h-3.671V55.976c0-4.588-1.283-9.053-7.096-9.053
		c-6.789,0-8.563,5.75-8.563,9.787v15.904h-3.671V55.609c0-5.199-1.896-8.686-5.871-8.686c-5.444,0-9.787,3.792-9.787,11.561v14.13
		h-3.67V52.306z"/>
	<path clip-path="url(#SVGID_2_)" fill="#FFFFFF" d="M99.013,49.506C99.013,22.165,76.848,0,49.506,0C22.165,0,0,22.165,0,49.506
		s22.165,49.507,49.506,49.507C76.848,99.013,99.013,76.848,99.013,49.506"/>
	<path clip-path="url(#SVGID_2_)" fill="#80B4DA" d="M50.349,67.594V32.872c0-5.6,6.771-8.405,10.731-4.444l17.361,17.361
		c2.455,2.455,2.455,6.435,0,8.89L61.08,72.04C57.12,76,50.349,73.195,50.349,67.594"/>
	<path clip-path="url(#SVGID_2_)" fill="#0069B4" d="M27.08,67.594V32.872c0-5.6,6.771-8.405,10.731-4.444l17.361,17.361
		c2.455,2.455,2.455,6.435,0,8.89L37.811,72.04C33.851,76,27.08,73.195,27.08,67.594"/>
</g>
</svg>
